<?xml version="1.0" encoding="UTF-8" standalone="no"?>
<!-- Uploaded to: SVG Repo, www.svgrepo.com, Transformed by: SVG Repo Mixer Tools -->

<svg
   fill="context-fill"
   width="61.940781"
   height="64"
   viewBox="0 0 23.227793 24"
   role="img"
   version="1.1"
   id="svg1"
   xmlns:xlink="http://www.w3.org/1999/xlink"
   xmlns="http://www.w3.org/2000/svg"
   xmlns:svg="http://www.w3.org/2000/svg">
  <defs
     id="defs1">
    <linearGradient
       id="linearGradient1">
      <stop
         class="start-stop"
         offset="0"
         id="stop1" />
      <stop
         class="middle-stop"
         offset="0.47924927"
         id="stop3" />
      <stop
         class="end-stop"
         offset="1"
         id="stop2" />
    </linearGradient>
    <linearGradient
       xlink:href="#linearGradient1"
       id="linearGradient2"
       x1="3.3417718"
       y1="21.916817"
       x2="21.916817"
       y2="6.5533452"
       gradientUnits="userSpaceOnUse" />
    <linearGradient
       xlink:href="#linearGradient1"
       id="linearGradient3"
       gradientUnits="userSpaceOnUse"
       x1="3.3417718"
       y1="21.916817"
       x2="21.916817"
       y2="6.5533452" />
  </defs>
  <g
     id="SVGRepo_iconCarrier"
     style="fill:url(#linearGradient2);fill-opacity:1"
     transform="translate(-0.38600001)">
    <path
       d="m 8.824,7.287 c 0.008,0 0.004,0 0,0 z m -2.8,-1.4 c 0.006,0 0.003,0 0,0 z M 22.778,8.048 C 22.273,6.833 21.248,5.52 20.445,5.105 c 0.654,1.283 1.033,2.57 1.177,3.53 l 0.002,0.02 C 20.31,5.377 18.08,4.055 16.258,1.178 16.167,1.031 16.074,0.886 15.985,0.732 a 3.545,3.545 0 0 1 -0.13,-0.24 2.118,2.118 0 0 1 -0.172,-0.46 0.03,0.03 0 0 0 -0.027,-0.03 0.038,0.038 0 0 0 -0.021,0 l -0.006,0.001 a 0.037,0.037 0 0 0 -0.01,0.005 L 15.624,0 C 13.039,1.515 11.967,4.168 11.692,5.856 A 6.197,6.197 0 0 0 9.387,6.443 0.297,0.297 0 0 0 9.24,6.813 c 0.057,0.162 0.24,0.24 0.396,0.17 A 5.622,5.622 0 0 1 11.644,6.46 l 0.067,-0.005 a 5.847,5.847 0 0 1 1.957,0.222 l 0.095,0.03 a 5.816,5.816 0 0 1 0.616,0.228 c 0.08,0.036 0.16,0.073 0.238,0.112 l 0.107,0.055 a 5.835,5.835 0 0 1 0.368,0.211 5.953,5.953 0 0 1 2.034,2.104 C 16.506,8.98 15.393,8.549 14.323,8.736 c 4.183,2.09 3.06,9.292 -2.737,9.02 A 5.164,5.164 0 0 1 10.073,17.464 4.42,4.42 0 0 1 9.535,17.232 c -1.42,-0.735 -2.593,-2.121 -2.74,-3.806 0,0 0.537,-2 3.845,-2 0.357,0 1.38,-0.998 1.398,-1.287 C 12.033,10.044 10.009,9.239 9.221,8.462 8.799,8.046 8.599,7.846 8.421,7.695 A 3.47,3.47 0 0 0 8.12,7.468 5.388,5.388 0 0 1 8.088,4.626 C 6.893,5.17 5.964,6.029 5.288,6.789 H 5.282 C 4.822,6.205 4.854,4.279 4.88,3.876 4.874,3.851 4.537,4.052 4.491,4.082 A 8.43,8.43 0 0 0 3.355,5.056 C 2.958,5.459 2.595,5.895 2.27,6.359 a 9.816,9.816 0 0 0 -1.562,3.52 c -0.003,0.013 -0.11,0.487 -0.19,1.073 -0.013,0.09 -0.026,0.181 -0.037,0.272 a 7.8,7.8 0 0 0 -0.069,0.667 l -0.002,0.034 -0.023,0.387 -0.001,0.06 c 0,6.423 5.207,11.628 11.63,11.628 5.752,0 10.527,-4.176 11.463,-9.661 0.02,-0.149 0.035,-0.298 0.052,-0.448 0.232,-1.994 -0.025,-4.09 -0.753,-5.844 z"
       id="path1"
       style="fill:url(#linearGradient3);fill-opacity:1" />
  </g>
</svg>
