<?xml version="1.0" encoding="UTF-8" standalone="no"?>
<svg
   xmlns:dc="http://purl.org/dc/elements/1.1/"
   xmlns:cc="http://creativecommons.org/ns#"
   xmlns:rdf="http://www.w3.org/1999/02/22-rdf-syntax-ns#"
   xmlns:svg="http://www.w3.org/2000/svg"
   xmlns="http://www.w3.org/2000/svg"
   xmlns:sodipodi="http://sodipodi.sourceforge.net/DTD/sodipodi-0.dtd"
   xmlns:inkscape="http://www.inkscape.org/namespaces/inkscape"
   viewBox="0 0 12 12"
   width="12"
   height="12"
   version="1.1"
   id="svg6"
   sodipodi:docname="tab-audio-blocked-small.svg"
   inkscape:version="1.0.2-2 (e86c870879, 2021-01-15)">
  <metadata
     id="metadata12">
    <rdf:RDF>
      <cc:Work
         rdf:about="">
        <dc:format>image/svg+xml</dc:format>
        <dc:type
           rdf:resource="http://purl.org/dc/dcmitype/StillImage" />
        <dc:title></dc:title>
      </cc:Work>
    </rdf:RDF>
  </metadata>
  <defs
     id="defs10" />
  <sodipodi:namedview
     pagecolor="#ffffff"
     bordercolor="#666666"
     borderopacity="1"
     objecttolerance="10"
     gridtolerance="10"
     guidetolerance="10"
     inkscape:pageopacity="0"
     inkscape:pageshadow="2"
     inkscape:window-width="1297"
     inkscape:window-height="602"
     id="namedview8"
     showgrid="false"
     inkscape:zoom="34.058977"
     inkscape:cx="3.7514102"
     inkscape:cy="6.0875034"
     inkscape:window-x="-5"
     inkscape:window-y="132"
     inkscape:window-maximized="0"
     inkscape:current-layer="svg6" />
  <circle
     cx="6"
     cy="6"
     r="5"
     fill="context-stroke"
     id="circle2" />
  <path
     d="m 6,1.5 c 2.5,0 4.5,2 4.5,4.5 0,2.5 -2,4.5 -4.5,4.5 C 3.5,10.5 1.5,8.5 1.5,6 1.5,3.5 3.5,1.5 6,1.5 m 0,-1 C 3,0.5 0.5,3 0.5,6 0.5,9 3,11.5 6,11.5 9,11.5 11.5,9 11.5,6 11.5,3 9,0.5 6,0.5 Z M 4.023835,7.2659791 3.9944742,4.0293608 7.9554652,4.0098293 7.9889483,5.6587217 8.04767,7.8212376 4.0432541,7.911552 Z"
     fill="context-fill"
     fill-opacity="context-fill-opacity"
     id="path4"
     sodipodi:nodetypes="cssscsssssccccccc" />
</svg>
