<?xml version="1.0" encoding="UTF-8" standalone="no"?>
<svg
   xmlns:dc="http://purl.org/dc/elements/1.1/"
   xmlns:cc="http://creativecommons.org/ns#"
   xmlns:rdf="http://www.w3.org/1999/02/22-rdf-syntax-ns#"
   xmlns:svg="http://www.w3.org/2000/svg"
   xmlns="http://www.w3.org/2000/svg"
   xmlns:sodipodi="http://sodipodi.sourceforge.net/DTD/sodipodi-0.dtd"
   xmlns:inkscape="http://www.inkscape.org/namespaces/inkscape"
   viewBox="0 0 12 12"
   width="12"
   height="12"
   version="1.1"
   id="svg6"
   sodipodi:docname="audio-muted.svg"
   inkscape:version="1.0.2-2 (e86c870879, 2021-01-15)">
  <metadata
     id="metadata12">
    <rdf:RDF>
      <cc:Work
         rdf:about="">
        <dc:format>image/svg+xml</dc:format>
        <dc:type
           rdf:resource="http://purl.org/dc/dcmitype/StillImage" />
        <dc:title></dc:title>
      </cc:Work>
    </rdf:RDF>
  </metadata>
  <defs
     id="defs10" />
  <sodipodi:namedview
     pagecolor="#ffffff"
     bordercolor="#666666"
     borderopacity="1"
     objecttolerance="10"
     gridtolerance="10"
     guidetolerance="10"
     inkscape:pageopacity="0"
     inkscape:pageshadow="2"
     inkscape:window-width="1297"
     inkscape:window-height="659"
     id="namedview8"
     showgrid="false"
     inkscape:zoom="34.058977"
     inkscape:cx="3.814426"
     inkscape:cy="6.0875034"
     inkscape:window-x="0"
     inkscape:window-y="70"
     inkscape:window-maximized="0"
     inkscape:current-layer="svg6"
     inkscape:document-rotation="0" />
  <circle
     cx="6"
     cy="6"
     r="5"
     fill="context-stroke"
     id="circle2" />
  <path
     d="m 6,1.5 c 2.5,0 4.5,2 4.5,4.5 0,2.5 -2,4.5 -4.5,4.5 C 3.5,10.5 1.5,8.5 1.5,6 1.5,3.5 3.5,1.5 6,1.5 m 0,-1 C 3,0.5 0.5,3 0.5,6 0.5,9 3,11.5 6,11.5 9,11.5 11.5,9 11.5,6 11.5,3 9,0.5 6,0.5 Z M 3.9944741,6.385154 3.9651133,3.9706391 7.984826,4.0098293 7.9595874,5.6880825 8.0183092,7.9974026 3.9845325,7.9702736 Z"
     fill="context-fill"
     fill-opacity="context-fill-opacity"
     id="path4"
     sodipodi:nodetypes="cssscsssssccccccc" />
</svg>
