<?xml version="1.0" encoding="UTF-8" standalone="no"?>
<svg
   xmlns:dc="http://purl.org/dc/elements/1.1/"
   xmlns:cc="http://creativecommons.org/ns#"
   xmlns:rdf="http://www.w3.org/1999/02/22-rdf-syntax-ns#"
   xmlns:svg="http://www.w3.org/2000/svg"
   xmlns="http://www.w3.org/2000/svg"
   xmlns:sodipodi="http://sodipodi.sourceforge.net/DTD/sodipodi-0.dtd"
   xmlns:inkscape="http://www.inkscape.org/namespaces/inkscape"
   fill="context-fill"
   fill-opacity="context-fill-opacity"
   style="animation:spinLoadingIcon 750ms linear infinite"
   version="1.1"
   id="Layer_1"
   x="0px"
   y="0px"
   viewBox="0 0 20 20"
   xml:space="preserve"
   sodipodi:docname="loading.svg"
   width="20"
   height="20"
   inkscape:version="1.0.2-2 (e86c870879, 2021-01-15)"><metadata
   id="metadata53"><rdf:RDF><cc:Work
       rdf:about=""><dc:format>image/svg+xml</dc:format><dc:type
         rdf:resource="http://purl.org/dc/dcmitype/StillImage" /><dc:title></dc:title></cc:Work></rdf:RDF></metadata><defs
   id="defs51" /><sodipodi:namedview
   pagecolor="#ffffff"
   bordercolor="#666666"
   borderopacity="1"
   objecttolerance="10"
   gridtolerance="10"
   guidetolerance="10"
   inkscape:pageopacity="0"
   inkscape:pageshadow="2"
   inkscape:window-width="1299"
   inkscape:window-height="745"
   id="namedview49"
   showgrid="false"
   inkscape:pagecheckerboard="true"
   inkscape:zoom="17.125"
   inkscape:cx="7.2309062"
   inkscape:cy="11.107248"
   inkscape:window-x="-8"
   inkscape:window-y="-8"
   inkscape:window-maximized="1"
   inkscape:current-layer="Layer_1"
   inkscape:document-rotation="0" />
   <style
   id="style5">
        @keyframes spinLoadingIcon {
            to {
                transform: rotate(360deg)
            }
        }
    </style>
<path
   style="fill:#ff2020;fill-opacity:1;stroke-width:0.0344775"
   d="m 10.258419,14.164765 c -0.4431397,0 -0.8023951,0.359258 -0.8023951,0.802396 v 3.209544 c 0,0.44314 0.3592554,0.802396 0.8023951,0.802396 0.443139,0 0.802394,-0.359256 0.802394,-0.802396 v -3.209544 c -3.5e-5,-0.443138 -0.35929,-0.802396 -0.802394,-0.802396 z"
   id="path2" />
<path
   style="fill:#fac83a;fill-opacity:1;stroke-width:0.0344775"
   d="m 10.258419,1.3265874 c -0.4431397,0 -0.8023951,0.3592561 -0.8023951,0.8023962 v 3.2095448 c 0,0.443139 0.3592554,0.8023929 0.8023951,0.8023929 0.443139,0 0.802394,-0.3592539 0.802394,-0.8023929 V 2.1289836 c -3.5e-5,-0.4431401 -0.35929,-0.8023962 -0.802394,-0.8023962 z"
   id="path4" />
<path
   style="fill:#fd2e87;fill-opacity:1;stroke-width:0.0344775"
   d="m 14.229984,12.989669 c -0.313296,-0.313365 -0.821391,-0.313365 -1.134723,0 -0.313365,0.313299 -0.313365,0.821392 0,1.134725 l 2.269516,2.269514 c 0.156666,0.156667 0.361979,0.235001 0.567328,0.235001 0.205348,0 0.41073,-0.0783 0.567396,-0.235001 0.313366,-0.313366 0.313366,-0.82139 0,-1.134723 z"
   id="path6" />
<g
   id="g12"
   transform="matrix(0.0344775,0,0,0.0344775,1.1910239,0.85943412)"
   style="fill:#fac83a;fill-opacity:0.73333335">
	
	<path
   style="fill:#fac83a;fill-opacity:0.73333335"
   d="m 97.949689,88.531507 c -9.087,-9.088996 -23.824,-9.088996 -32.912,0 -9.088,9.089 -9.089,23.825003 0,32.912003 l 65.826001,65.825 c 4.544,4.544 10.501,6.817 16.455,6.817 5.956,0 11.913,-2.273 16.455,-6.817 9.089,-9.089 9.089,-23.824 0,-32.912 z"
   id="path10" />
</g>
<path
   style="fill:#4aa4d8;fill-opacity:1;stroke-width:0.0344775"
   d="m 18.282263,9.3504327 h -3.209544 c -0.44314,0 -0.802395,0.3592561 -0.802395,0.8023953 0,0.44314 0.359255,0.802395 0.802395,0.802395 h 3.209544 c 0.44314,0 0.802395,-0.359255 0.802395,-0.802395 0,-0.4431392 -0.359255,-0.8023953 -0.802395,-0.8023953 z"
   id="path14" />
<path
   style="fill:#4aa4d8;fill-opacity:0.66666669;stroke-width:0.0344775"
   d="m 15.364777,3.9117803 -2.269516,2.2694809 c -0.313365,0.3132959 -0.313365,0.8213922 0,1.1347248 0.156666,0.1566647 0.362049,0.2350322 0.567328,0.2350322 0.205313,0 0.41073,-0.078367 0.567395,-0.2350322 l 2.269517,-2.2694831 c 0.313366,-0.3132958 0.313366,-0.8213921 0,-1.1347226 -0.313297,-0.313365 -0.821358,-0.313365 -1.134724,0 z"
   id="path16" />
<g
   id="g18">
</g>
<g
   id="g20">
</g>
<g
   id="g22">
</g>
<g
   id="g24">
</g>
<g
   id="g26">
</g>
<g
   id="g28">
</g>
<g
   id="g30">
</g>
<g
   id="g32">
</g>
<g
   id="g34">
</g>
<g
   id="g36">
</g>
<g
   id="g38">
</g>
<g
   id="g40">
</g>
<g
   id="g42">
</g>
<g
   id="g44">
</g>
<g
   id="g46">
</g>
<path
   style="fill:#fac83a;fill-opacity:0.13333334;stroke-width:0.0344775"
   d="M 7.1194685,13.001119 C 6.8146461,12.679473 6.3067642,12.665835 5.9851178,12.970657 l -2.3295982,2.207747 c -0.3216457,0.304821 -0.3352839,0.812701 -0.030462,1.134347 0.304822,0.321646 0.8127014,0.335286 1.1343471,0.03046 l 2.3295982,-2.207747 c 0.3216223,-0.304848 0.335263,-0.812729 0.030465,-1.13435 z"
   id="path4-4" /><path
   style="fill:#fac83a;fill-opacity:0.46666667;stroke-width:0.0344775"
   d="M 1.6092946,9.1782591 C 1.1661806,9.1768591 0.80583377,9.5350954 0.80453615,9.9782354 0.80316815,10.421353 1.1613721,10.781698 1.6045125,10.782996 l 3.2095646,0.0096 c 0.2215589,6.61e-4 0.4223944,-0.08853 0.5680303,-0.233298 0.1456351,-0.14477 0.2360932,-0.345094 0.236729,-0.5666776 0.00132,-0.443166 -0.3568338,-0.8034623 -0.799975,-0.8047603 z"
   id="path6-5" /></svg>
