<?xml version="1.0" encoding="UTF-8" standalone="no"?>
<svg
   xmlns:dc="http://purl.org/dc/elements/1.1/"
   xmlns:cc="http://creativecommons.org/ns#"
   xmlns:rdf="http://www.w3.org/1999/02/22-rdf-syntax-ns#"
   xmlns:svg="http://www.w3.org/2000/svg"
   xmlns="http://www.w3.org/2000/svg"
   xmlns:sodipodi="http://sodipodi.sourceforge.net/DTD/sodipodi-0.dtd"
   xmlns:inkscape="http://www.inkscape.org/namespaces/inkscape"
   version="1.1"
   id="Layer_1"
   x="0px"
   y="0px"
   width="32"
   height="32"
   viewBox="0 0 32 32"
   enable-background="new 0 0 32 32"
   xml:space="preserve"
   sodipodi:docname="loading.svg"
   inkscape:version="1.0.2-2 (e86c870879, 2021-01-15)"><metadata
   id="metadata10"><rdf:RDF><cc:Work
       rdf:about=""><dc:format>image/svg+xml</dc:format><dc:type
         rdf:resource="http://purl.org/dc/dcmitype/StillImage" /><dc:title></dc:title></cc:Work></rdf:RDF></metadata><defs
   id="defs8" /><sodipodi:namedview
   pagecolor="#ffffff"
   bordercolor="#666666"
   borderopacity="1"
   objecttolerance="10"
   gridtolerance="10"
   guidetolerance="10"
   inkscape:pageopacity="0"
   inkscape:pageshadow="2"
   inkscape:window-width="1295"
   inkscape:window-height="666"
   id="namedview6"
   showgrid="false"
   inkscape:zoom="9.0312498"
   inkscape:cx="24.791818"
   inkscape:cy="16.533103"
   inkscape:window-x="-5"
   inkscape:window-y="63"
   inkscape:window-maximized="0"
   inkscape:current-layer="g3"
   inkscape:document-rotation="0" />
<g
   fill="#000000"
   id="g3">
	<path
   id="path1"
   d="m 11.24,1 c 0.467,0 0.84,0.1 1.026,0.298 0.653,0.397 1.027,1.192 1.027,2.086 v 0.398 c -0.093,0.795 -0.653,1.591 -1.4,1.888 -0.094,0 -0.187,0.1 -0.281,0.1 -1.026,0.398 -1.96,1.193 -2.52,2.088 -0.559,0.895 -0.933,1.988 -0.933,3.18 0,1.095 0.279,2.188 0.84,3.082 C 7.972,13.324 7.131,12.133 6.666,10.84 6.2,9.945 6.014,9.051 6.014,8.057 6.014,4.876 7.881,2.192 10.493,1.099 10.773,1 10.96,1 11.24,1 Z"
   style="fill:#4a91d8;fill-opacity:0.73333335"
   sodipodi:nodetypes="scsccccsccscs">
		<animateTransform
   attributeName="transform"
   attributeType="XML"
   type="rotate"
   from="0, 16, 16"
   to="360, 16, 16"
   dur="1.5s"
   repeatCount="indefinite" />
	</path>
<path
   id="path1-7"
   d="m 23.095,17.897 c 1.026,0.795 1.865,1.987 2.333,3.28 0.279,0.894 0.466,1.788 0.466,2.782 0,3.182 -1.866,5.865 -4.48,6.957 -0.839,0.199 -1.492,0 -1.772,-0.197 -0.654,-0.396 -1.027,-1.193 -1.027,-2.087 v -0.398 c 0.095,-0.795 0.653,-1.591 1.401,-1.889 0.092,0 0.186,-0.099 0.279,-0.099 1.026,-0.397 1.959,-1.193 2.613,-2.088 0.561,-0.895 0.933,-1.987 0.933,-3.182 0.094,-1.19 -0.187,-2.284 -0.746,-3.079 z"
   sodipodi:nodetypes="ccsccscccccc"
   style="fill:#fac823;fill-opacity:0.73333335"><animateTransform
     attributeName="transform"
     attributeType="XML"
     type="rotate"
     from="0, 16, 16"
     to="360, 16, 16"
     dur="1.5s"
     repeatCount="indefinite" /></path><path
   id="path1-72"
   d="m 3.213,11.833 c 0.374,0 0.747,0.099 1.121,0.299 0.093,0.098 0.186,0.098 0.279,0.198 0.653,0.497 0.934,1.392 0.84,2.187 0,0.1 0,0.199 -0.093,0.298 -0.186,1.192 0,2.385 0.467,3.48 0.466,0.993 1.213,1.887 2.146,2.483 0.934,0.598 1.96,0.796 2.894,0.796 C 9.653,22.171 8.346,22.369 7.04,22.171 6.2,22.071 5.36,21.774 4.52,21.277 1.906,19.686 0.693,16.605 1.066,13.723 1.347,12.827 1.814,12.331 2.092,12.231 2.466,11.933 2.84,11.833 3.213,11.833 Z"
   sodipodi:nodetypes="scccccccccccs"
   style="fill:#ff2020;fill-opacity:1"><animateTransform
     attributeName="transform"
     attributeType="XML"
     type="rotate"
     from="0, 16, 16"
     to="360, 16, 16"
     dur="1.5s"
     repeatCount="indefinite" /></path><path
   id="path1-9"
   d="m 23.935,9.746001 c 0.372,0 0.653,0 1.025,0.101 0.84,0.099 1.681,0.397001 2.521,0.894001 2.613,1.59 3.828,4.671 3.453,7.554998 -0.279,0.894 -0.746,1.391001 -1.026,1.49 -0.654,0.396 -1.493,0.396 -2.24,0 -0.093,-0.1 -0.187,-0.1 -0.279,-0.2 -0.654,-0.495 -0.934,-1.391 -0.84,-2.186 0,-0.1 0,-0.199 0.093,-0.299 0.187,-1.191999 0,-2.385 -0.468,-3.478999 -0.466,-0.994 -1.213,-1.889 -2.146,-2.485 -0.933,-0.596 -1.961,-0.794999 -2.894,-0.794999 0.839,-0.397001 1.867,-0.596001 2.801,-0.596001 z"
   sodipodi:nodetypes="scccccccccscs"
   style="fill:#e9d143;fill-opacity:0.73333335"><animateTransform
     attributeName="transform"
     attributeType="XML"
     type="rotate"
     from="0, 16, 16"
     to="360, 16, 16"
     dur="1.5s"
     repeatCount="indefinite" /></path><path
   id="path1-6"
   d="M 18.054,23.463 C 17.868,24.855 17.402,26.147 16.561,27.34 16,28.035 15.348,28.633 14.6,29.13 11.987,30.72 8.907,30.323 6.761,28.533 6.201,27.837 6.014,27.141 6.014,26.842 c 0,-0.793 0.466,-1.589 1.119,-1.987 0.094,-0.099 0.188,-0.099 0.374,-0.198 0.747,-0.297999 1.586,-0.199 2.24,0.397 0.094,0.1 0.186,0.1 0.28,0.199 0.84,0.796 1.959,1.192 2.987,1.293 1.026,0.098 2.146,-0.2 3.08,-0.696 0.747,-0.697 1.493,-1.492 1.96,-2.387 z"
   sodipodi:nodetypes="ccccsccccccc"
   style="fill:#fd2e87;fill-opacity:1"><animateTransform
     attributeName="transform"
     attributeType="XML"
     type="rotate"
     from="0, 16, 16"
     to="360, 16, 16"
     dur="1.5s"
     repeatCount="indefinite" /></path><path
   id="path1-1"
   d="m 21.041,1.7939999 c 1.586,0 3.08,0.5970001 4.292,1.5900001 0.561,0.696 0.748,1.392 0.748,1.691 0,0.794 -0.468,1.59 -1.121,1.987 -0.093,0.1 -0.186,0.1 -0.372,0.199 C 23.84,7.56 23.001,7.46 22.347,6.864 22.253,6.764 22.16,6.764 22.067,6.665 21.229,5.87 20.107,5.473 19.081,5.373 18.055,5.273 16.935,5.571 16.001,6.067 15.068,6.664 14.415,7.459 13.948,8.354 14.134,6.963 14.6,5.67 15.441,4.478 16,3.783 16.652,3.186 17.401,2.69 18.613,2.092 19.827,1.7939999 21.041,1.7939999 Z"
   sodipodi:nodetypes="scsccccsccccs"
   style="fill:#00b6d8;fill-opacity:0.73333335"><animateTransform
     attributeName="transform"
     attributeType="XML"
     type="rotate"
     from="0, 16, 16"
     to="360, 16, 16"
     dur="1.5s"
     repeatCount="indefinite" /></path></g>
</svg>
